<svg width="55" height="56" viewBox="0 0 55 56" fill="none" xmlns="http://www.w3.org/2000/svg">
<path d="M54.045 25.7751L29.7423 1.05869C29.4918 0.803434 29.1942 0.60093 28.8666 0.462763C28.539 0.324597 28.1878 0.253479 27.8332 0.253479C27.4786 0.253479 27.1274 0.324597 26.7998 0.462763C26.4722 0.60093 26.1746 0.803434 25.9241 1.05869L1.62142 25.7751C1.2439 26.1592 0.986809 26.6485 0.882666 27.1811C0.778522 27.7138 0.831996 28.2659 1.03633 28.7676C1.24066 29.2693 1.58667 29.6982 2.03063 30C2.47458 30.3017 2.99655 30.4629 3.53053 30.463H6.23083V49.6869C6.23083 52.716 8.65299 55.1794 11.6314 55.1794H44.035C47.0134 55.1794 49.4356 52.716 49.4356 49.6869V30.463H52.1359C52.6698 30.4629 53.1918 30.3017 53.6358 30C54.0797 29.6982 54.4257 29.2693 54.6301 28.7676C54.8344 28.2659 54.8879 27.7138 54.7837 27.1811C54.6796 26.6485 54.4225 26.1592 54.045 25.7751ZM44.0377 49.6869H11.6314V23.3639L27.8332 6.88627L44.035 23.3639V35.9555L44.0377 49.6869Z" fill="#EFECE5"/>
</svg>
