<svg width="48" height="31" viewBox="0 0 48 31" fill="none" xmlns="http://www.w3.org/2000/svg">
<path d="M13.962 0C15.345 0 16.623 0.105 17.796 0.42C18.966 0.63 19.929 1.068 20.784 1.593C21.642 2.121 22.275 2.871 22.707 3.834C23.127 4.794 23.355 5.967 23.355 7.245C23.355 8.733 23.037 10.011 22.287 10.971C21.642 11.931 20.589 12.789 19.296 13.422C21.114 13.95 22.497 14.91 23.34 16.188C24.183 17.466 24.723 19.059 24.723 20.877C24.723 22.365 24.408 23.643 23.868 24.711C23.3293 25.786 22.521 26.7028 21.522 27.372C20.562 28.017 19.389 28.542 18.111 28.86C16.8591 29.1906 15.5717 29.3679 14.277 29.388L0 29.409V0H13.962ZM13.107 11.934C14.277 11.934 15.237 11.619 15.978 11.079C16.716 10.539 17.043 9.588 17.043 8.418C17.043 7.77 16.938 7.14 16.728 6.717C16.5007 6.28828 16.1709 5.92243 15.768 5.652C15.3328 5.4147 14.8676 5.23711 14.385 5.124C13.857 5.019 13.317 5.019 12.684 5.019H6.51V11.949C6.51 11.934 13.11 11.934 13.11 11.934H13.107ZM13.422 24.513C14.067 24.513 14.7 24.408 15.24 24.303C15.768 24.198 16.308 23.985 16.728 23.655C17.148 23.325 17.478 23.01 17.796 22.485C18.006 21.957 18.216 21.312 18.216 20.562C18.216 19.074 17.796 18.006 16.938 17.256C16.083 16.611 14.91 16.296 13.527 16.296H6.51V24.498H13.425V24.513H13.422ZM33.996 24.408C34.854 25.263 36.129 25.686 37.83 25.686C39 25.686 40.068 25.368 40.926 24.828C41.781 24.183 42.306 23.55 42.516 22.908H47.736C46.878 25.461 45.6 27.279 43.902 28.452C42.204 29.517 40.173 30.15 37.722 30.15C36.1547 30.157 34.6003 29.8668 33.141 29.295C31.8277 28.8068 30.6557 28.0008 29.73 26.949C28.7425 25.9682 28.0093 24.7613 27.594 23.433C27.069 22.05 26.844 20.562 26.844 18.849C26.844 17.256 27.054 15.753 27.594 14.37C28.134 12.99 28.872 11.814 29.835 10.749C30.795 9.789 31.968 8.931 33.246 8.403C34.671 7.83563 36.1912 7.54544 37.725 7.548C39.543 7.548 41.136 7.863 42.519 8.613C43.899 9.363 44.97 10.209 45.825 11.487C46.68 12.657 47.313 14.04 47.748 15.531C47.958 17.019 48.063 18.519 47.958 20.22H32.508C32.508 21.96 33.138 23.55 33.996 24.408ZM40.716 13.212C39.966 12.462 38.79 12.039 37.407 12.039C36.447 12.039 35.709 12.249 35.064 12.567C34.419 12.882 33.996 13.317 33.576 13.737C33.1839 14.1488 32.9228 14.6677 32.826 15.228C32.718 15.753 32.616 16.188 32.616 16.608H42.204C41.994 15.03 41.454 13.962 40.713 13.212H40.716ZM31.335 2.028H43.269V4.899H31.335V2.028Z" fill="#2A5678"/>
</svg>
