<svg width="16" height="19" viewBox="0 0 16 19" fill="none" xmlns="http://www.w3.org/2000/svg">
<path d="M7.29749 15.0581V16.9686H5.46395V18.8022H10.9646V16.9686H9.13102V15.0581C12.0298 14.6895 14.4932 12.6195 15.2853 9.74725C15.5273 8.87448 15.5713 7.88621 15.4164 6.80809L14.6225 1.25338C14.5911 1.03501 14.4821 0.835257 14.3154 0.690773C14.1487 0.54629 13.9355 0.466767 13.7149 0.466797H2.71364C2.49303 0.466767 2.27981 0.54629 2.1131 0.690773C1.94639 0.835257 1.83737 1.03501 1.80604 1.25338L1.01304 6.80717C0.858103 7.88621 0.902108 8.87448 1.14413 9.74633C1.93531 12.6195 4.39866 14.6895 7.29749 15.0581ZM12.92 2.30033L13.4426 5.96741H2.98501L3.50848 2.30033H12.92Z" fill="#EFECE5"/>
</svg>
