<svg width="10" height="12" viewBox="0 0 10 12" fill="none" xmlns="http://www.w3.org/2000/svg">
<path d="M4.4166 9.45084V10.6665H3.24993V11.8332H6.74993V10.6665H5.58326V9.45084C7.42776 9.21634 8.99518 7.89917 9.49918 6.07159C9.65318 5.51625 9.68118 4.88742 9.5826 4.20142L9.07743 0.667004C9.0575 0.528055 8.98813 0.400952 8.88205 0.309019C8.77597 0.217085 8.6403 0.166485 8.49993 0.166504H1.49993C1.35956 0.166485 1.22389 0.217085 1.11781 0.309019C1.01173 0.400952 0.942363 0.528055 0.92243 0.667004L0.417847 4.20084C0.319263 4.88742 0.347263 5.51625 0.501263 6.071C1.00468 7.89917 2.5721 9.21634 4.4166 9.45084ZM7.99418 1.33317L8.32668 3.6665H1.6726L2.00568 1.33317H7.99418Z" fill="#2A5678"/>
</svg>
