<svg width="39" height="61" viewBox="0 0 39 61" fill="none" xmlns="http://www.w3.org/2000/svg">
<path d="M38.7351 30.7164C38.7351 26.8991 36.1698 23.7683 32.7404 22.8071C33.2377 21.5575 33.4255 20.2028 33.2872 18.8621C33.1489 17.5213 32.6889 16.2357 31.9475 15.1182C31.206 14.0007 30.206 13.0857 29.0353 12.4534C27.8646 11.8212 26.5591 11.4912 25.2336 11.4925C24.0725 11.4925 22.9923 11.7671 22.0202 12.2065C22.5333 9.26804 23.5864 4.87401 26.3137 3.80297L24.1535 0.507446C19.563 2.62207 18.2128 8.99341 17.8348 12.2889C16.7817 11.7946 15.6475 11.4925 14.4324 11.4925C13.1069 11.4912 11.8014 11.8212 10.6307 12.4534C9.45995 13.0857 8.45992 14.0007 7.71852 15.1182C6.97711 16.2357 6.51705 17.5213 6.37878 18.8621C6.24051 20.2028 6.42828 21.5575 6.92557 22.8071C3.46919 23.7409 0.930908 26.9265 0.930908 30.7164C0.930908 34.5337 3.49619 37.6919 6.95257 38.6256C6.57453 39.5594 6.3315 40.6029 6.3315 41.7015C6.3315 45.5188 8.86978 48.677 12.3262 49.6107C11.8289 50.8603 11.6411 52.215 11.7794 53.5558C11.9176 54.8965 12.3777 56.1821 13.1191 57.2996C13.8605 58.4171 14.8605 59.3322 16.0312 59.9644C17.202 60.5966 18.5075 60.9266 19.833 60.9253C21.1585 60.9266 22.464 60.5966 23.6347 59.9644C24.8054 59.3322 25.8055 58.4171 26.5469 57.2996C27.2883 56.1821 27.7483 54.8965 27.8866 53.5558C28.0249 52.215 27.8371 50.8603 27.3398 49.6107C29.0586 49.1525 30.5794 48.1276 31.6642 46.6964C32.7489 45.2652 33.3364 43.5085 33.3345 41.7015C33.3345 40.6029 33.1184 39.5868 32.7134 38.6256C34.4353 38.1693 35.9601 37.1456 37.0496 35.7147C38.139 34.2838 38.7317 32.5261 38.7351 30.7164ZM31.4713 24.8943V24.9492H31.4443L31.4713 24.8943ZM25.2336 15.6119C27.4748 15.6119 29.284 17.4519 29.284 19.7313C29.284 22.0107 27.4748 23.8507 25.2336 23.8507C22.9923 23.8507 21.1831 22.0107 21.1831 19.7313C21.1831 17.4519 22.9923 15.6119 25.2336 15.6119ZM23.8834 30.7164C23.8834 32.9958 22.0742 34.8358 19.833 34.8358C17.5917 34.8358 15.7825 32.9958 15.7825 30.7164C15.7825 28.437 17.5917 26.597 19.833 26.597C22.0742 26.597 23.8834 28.437 23.8834 30.7164ZM14.4324 15.6119C16.6736 15.6119 18.4828 17.4519 18.4828 19.7313C18.4828 22.0107 16.6736 23.8507 14.4324 23.8507C12.1911 23.8507 10.3819 22.0107 10.3819 19.7313C10.3819 17.4519 12.1911 15.6119 14.4324 15.6119ZM4.98135 30.7164C4.98135 28.437 6.79055 26.597 9.0318 26.597C11.273 26.597 13.0822 28.437 13.0822 30.7164C13.0822 32.9958 11.273 34.8358 9.0318 34.8358C6.79055 34.8358 4.98135 32.9958 4.98135 30.7164ZM10.3819 41.7015C10.3819 39.422 12.1911 37.5821 14.4324 37.5821C16.6736 37.5821 18.4828 39.422 18.4828 41.7015C18.4828 43.9809 16.6736 45.8209 14.4324 45.8209C12.1911 45.8209 10.3819 43.9809 10.3819 41.7015ZM19.833 56.8059C17.5917 56.8059 15.7825 54.9659 15.7825 52.6865C15.7825 50.4071 17.5917 48.5671 19.833 48.5671C22.0742 48.5671 23.8834 50.4071 23.8834 52.6865C23.8834 54.9659 22.0742 56.8059 19.833 56.8059ZM25.2336 45.8209C22.9923 45.8209 21.1831 43.9809 21.1831 41.7015C21.1831 39.422 22.9923 37.5821 25.2336 37.5821C27.4748 37.5821 29.284 39.422 29.284 41.7015C29.284 43.9809 27.4748 45.8209 25.2336 45.8209ZM30.6342 34.8358C28.3929 34.8358 26.5837 32.9958 26.5837 30.7164C26.5837 28.437 28.3929 26.597 30.6342 26.597C32.8754 26.597 34.6846 28.437 34.6846 30.7164C34.6846 32.9958 32.8754 34.8358 30.6342 34.8358Z" fill="#4F84F9"/>
</svg>
