<svg width="22" height="21" viewBox="0 0 22 21" fill="none" xmlns="http://www.w3.org/2000/svg">
<path d="M11.4354 2.73044L10.8332 3.33462L10.2284 2.73044C9.10443 1.60191 7.58859 0.969113 6.00917 0.969113C4.42974 0.969113 2.9139 1.60191 1.78995 2.73044C1.23213 3.27622 0.788364 3.9309 0.485242 4.65525C0.182121 5.37961 0.0258789 6.15874 0.0258789 6.94596C0.0258789 7.73319 0.182121 8.51232 0.485242 9.23668C0.788364 9.96103 1.23213 10.6157 1.78995 11.1615L10.8332 20.194L19.8765 11.1615C20.4344 10.6157 20.8781 9.96103 21.1812 9.23668C21.4844 8.51232 21.6406 7.73319 21.6406 6.94596C21.6406 6.15874 21.4844 5.37961 21.1812 4.65525C20.8781 3.9309 20.4344 3.27622 19.8765 2.73044C18.7521 1.60174 17.2358 0.968872 15.656 0.968872C14.0761 0.968872 12.5598 1.60174 11.4354 2.73044Z" fill="#EFECE5"/>
</svg>
